<svg width="164" height="17" viewBox="0 0 164 17" fill="none" xmlns="http://www.w3.org/2000/svg">
<path d="M9.57528 6.12926H8.02415C7.96449 5.79782 7.85346 5.50615 7.69105 5.25426C7.52865 5.00237 7.32978 4.78859 7.09446 4.61293C6.85914 4.43726 6.59564 4.30469 6.30398 4.2152C6.01563 4.12571 5.70904 4.08097 5.38423 4.08097C4.79759 4.08097 4.27225 4.22846 3.80824 4.52344C3.34754 4.81842 2.98295 5.25095 2.71449 5.82102C2.44934 6.3911 2.31676 7.08712 2.31676 7.90909C2.31676 8.73769 2.44934 9.43703 2.71449 10.0071C2.98295 10.5772 3.3492 11.008 3.81321 11.2997C4.27723 11.5914 4.79924 11.7372 5.37926 11.7372C5.70076 11.7372 6.00568 11.6941 6.29403 11.608C6.5857 11.5185 6.8492 11.3875 7.08452 11.2152C7.31984 11.0429 7.5187 10.8324 7.68111 10.5838C7.84683 10.3319 7.96117 10.0436 8.02415 9.71875L9.57528 9.72372C9.49242 10.2242 9.33168 10.6849 9.09304 11.1058C8.85772 11.5234 8.55445 11.8847 8.18324 12.1896C7.81534 12.4912 7.39441 12.7249 6.92045 12.8906C6.4465 13.0563 5.92945 13.1392 5.36932 13.1392C4.48769 13.1392 3.70218 12.9304 3.01278 12.5128C2.32339 12.0919 1.77983 11.4903 1.3821 10.7081C0.987689 9.9259 0.790483 8.9929 0.790483 7.90909C0.790483 6.82197 0.989347 5.88897 1.38707 5.11008C1.7848 4.32789 2.32836 3.72798 3.01776 3.31037C3.70715 2.88944 4.491 2.67898 5.36932 2.67898C5.90956 2.67898 6.41335 2.75687 6.88068 2.91264C7.35133 3.0651 7.77391 3.29048 8.14844 3.58878C8.52296 3.88376 8.83286 4.24503 9.07812 4.67258C9.32339 5.09683 9.48911 5.58239 9.57528 6.12926ZM11.2942 13V5.36364H12.731V6.5767H12.8105C12.9498 6.16572 13.195 5.84257 13.5463 5.60724C13.901 5.36861 14.302 5.24929 14.7495 5.24929C14.8423 5.24929 14.9516 5.2526 15.0776 5.25923C15.2069 5.26586 15.3079 5.27415 15.3809 5.28409V6.70597C15.3212 6.68939 15.2151 6.67116 15.0627 6.65128C14.9102 6.62808 14.7578 6.61648 14.6053 6.61648C14.254 6.61648 13.9408 6.69105 13.6657 6.8402C13.3939 6.98603 13.1784 7.18987 13.0194 7.4517C12.8603 7.71023 12.7807 8.00521 12.7807 8.33665V13H11.2942ZM19.685 13.1541C18.9326 13.1541 18.2847 12.9934 17.7411 12.6719C17.2009 12.3471 16.7833 11.8913 16.4883 11.3047C16.1966 10.7147 16.0508 10.0237 16.0508 9.23153C16.0508 8.44934 16.1966 7.75994 16.4883 7.16335C16.7833 6.56676 17.1942 6.10109 17.7212 5.76633C18.2515 5.43158 18.8713 5.2642 19.5806 5.2642C20.0115 5.2642 20.4291 5.33546 20.8335 5.47798C21.2378 5.6205 21.6007 5.84422 21.9222 6.14915C22.2437 6.45407 22.4973 6.85014 22.6829 7.33736C22.8685 7.82126 22.9613 8.40956 22.9613 9.10227V9.62926H16.891V8.51562H21.5046C21.5046 8.12453 21.4251 7.77817 21.266 7.47656C21.1069 7.17164 20.8832 6.93134 20.5948 6.75568C20.3098 6.58002 19.975 6.49219 19.5906 6.49219C19.1729 6.49219 18.8084 6.59493 18.4968 6.80043C18.1886 7.0026 17.9499 7.26776 17.7809 7.59588C17.6152 7.92069 17.5323 8.27367 17.5323 8.65483V9.52486C17.5323 10.0353 17.6218 10.4695 17.8008 10.8274C17.9831 11.1854 18.2366 11.4588 18.5614 11.6477C18.8862 11.8333 19.2657 11.9261 19.6999 11.9261C19.9817 11.9261 20.2385 11.8864 20.4705 11.8068C20.7025 11.724 20.9031 11.6013 21.0721 11.4389C21.2411 11.2765 21.3704 11.076 21.4599 10.8374L22.8668 11.0909C22.7541 11.5052 22.552 11.8681 22.2603 12.1797C21.9719 12.4879 21.609 12.7282 21.1715 12.9006C20.7373 13.0696 20.2418 13.1541 19.685 13.1541ZM26.8329 13.169C26.349 13.169 25.9115 13.0795 25.5204 12.9006C25.1293 12.7183 24.8194 12.4548 24.5907 12.1101C24.3654 11.7654 24.2527 11.3428 24.2527 10.8423C24.2527 10.4115 24.3355 10.0568 24.5012 9.77841C24.667 9.5 24.8907 9.27959 25.1724 9.11719C25.4541 8.95478 25.769 8.83215 26.117 8.74929C26.465 8.66643 26.8197 8.60346 27.1809 8.56037C27.6383 8.50734 28.0095 8.46425 28.2946 8.43111C28.5796 8.39465 28.7868 8.33665 28.916 8.2571C29.0453 8.17756 29.1099 8.0483 29.1099 7.86932V7.83452C29.1099 7.40033 28.9873 7.06392 28.742 6.82528C28.5001 6.58665 28.1388 6.46733 27.6582 6.46733C27.1577 6.46733 26.7633 6.57836 26.475 6.80043C26.1899 7.01918 25.9927 7.26278 25.8833 7.53125L24.4863 7.21307C24.652 6.74905 24.894 6.37453 25.2122 6.08949C25.5337 5.80114 25.9032 5.59233 26.3208 5.46307C26.7385 5.33049 27.1776 5.2642 27.6383 5.2642C27.9432 5.2642 28.2664 5.30066 28.6078 5.37358C28.9525 5.44318 29.274 5.57244 29.5723 5.76136C29.8739 5.95028 30.1208 6.22041 30.313 6.57173C30.5053 6.91974 30.6014 7.37216 30.6014 7.92898V13H29.1497V11.956H29.09C28.9939 12.1482 28.8497 12.3371 28.6575 12.5227C28.4653 12.7083 28.2183 12.8625 27.9167 12.9851C27.6151 13.1077 27.2538 13.169 26.8329 13.169ZM27.1561 11.9759C27.5671 11.9759 27.9184 11.8946 28.21 11.7322C28.505 11.5698 28.7288 11.3577 28.8812 11.0959C29.037 10.8307 29.1149 10.5473 29.1149 10.2457V9.26136C29.0618 9.31439 28.9591 9.36411 28.8066 9.41051C28.6575 9.4536 28.4868 9.49171 28.2946 9.52486C28.1023 9.55469 27.9151 9.58286 27.7328 9.60938C27.5505 9.63258 27.398 9.65246 27.2754 9.66903C26.987 9.70549 26.7235 9.76681 26.4849 9.85298C26.2496 9.93916 26.0607 10.0634 25.9181 10.2259C25.7789 10.3849 25.7093 10.5971 25.7093 10.8622C25.7093 11.2301 25.8452 11.5085 26.117 11.6974C26.3888 11.883 26.7351 11.9759 27.1561 11.9759ZM36.146 5.36364V6.55682H31.9748V5.36364H36.146ZM33.0934 3.53409H34.5799V10.7578C34.5799 11.0462 34.623 11.2633 34.7092 11.4091C34.7953 11.5516 34.9064 11.6494 35.0423 11.7024C35.1815 11.7521 35.3323 11.777 35.4947 11.777C35.614 11.777 35.7184 11.7687 35.8079 11.7521C35.8974 11.7356 35.967 11.7223 36.0167 11.7124L36.2852 12.9403C36.199 12.9735 36.0763 13.0066 35.9173 13.0398C35.7582 13.0762 35.5593 13.0961 35.3207 13.0994C34.9296 13.1061 34.565 13.0365 34.2269 12.8906C33.8888 12.7448 33.6154 12.5194 33.4066 12.2145C33.1978 11.9096 33.0934 11.5268 33.0934 11.0661V3.53409ZM40.9995 13.1541C40.2471 13.1541 39.5991 12.9934 39.0556 12.6719C38.5153 12.3471 38.0977 11.8913 37.8027 11.3047C37.5111 10.7147 37.3652 10.0237 37.3652 9.23153C37.3652 8.44934 37.5111 7.75994 37.8027 7.16335C38.0977 6.56676 38.5087 6.10109 39.0357 5.76633C39.566 5.43158 40.1858 5.2642 40.8951 5.2642C41.3259 5.2642 41.7435 5.33546 42.1479 5.47798C42.5523 5.6205 42.9152 5.84422 43.2367 6.14915C43.5582 6.45407 43.8117 6.85014 43.9973 7.33736C44.1829 7.82126 44.2757 8.40956 44.2757 9.10227V9.62926H38.2054V8.51562H42.8191C42.8191 8.12453 42.7395 7.77817 42.5804 7.47656C42.4213 7.17164 42.1976 6.93134 41.9093 6.75568C41.6242 6.58002 41.2895 6.49219 40.905 6.49219C40.4874 6.49219 40.1228 6.59493 39.8113 6.80043C39.503 7.0026 39.2644 7.26776 39.0953 7.59588C38.9296 7.92069 38.8468 8.27367 38.8468 8.65483V9.52486C38.8468 10.0353 38.9363 10.4695 39.1152 10.8274C39.2975 11.1854 39.5511 11.4588 39.8759 11.6477C40.2007 11.8333 40.5802 11.9261 41.0144 11.9261C41.2961 11.9261 41.553 11.8864 41.785 11.8068C42.017 11.724 42.2175 11.6013 42.3865 11.4389C42.5556 11.2765 42.6848 11.076 42.7743 10.8374L44.1813 11.0909C44.0686 11.5052 43.8664 11.8681 43.5748 12.1797C43.2864 12.4879 42.9235 12.7282 42.486 12.9006C42.0518 13.0696 41.5563 13.1541 40.9995 13.1541ZM48.7837 13.1491C48.1673 13.1491 47.6171 12.9917 47.1332 12.6768C46.6526 12.3587 46.2747 11.9062 45.9996 11.3196C45.7279 10.7296 45.592 10.022 45.592 9.19673C45.592 8.37145 45.7295 7.66548 46.0046 7.07884C46.283 6.49219 46.6642 6.04309 47.1481 5.73153C47.632 5.41998 48.1805 5.2642 48.7937 5.2642C49.2676 5.2642 49.6488 5.34375 49.9371 5.50284C50.2288 5.65862 50.4542 5.84091 50.6133 6.04972C50.7757 6.25852 50.9016 6.44247 50.9911 6.60156H51.0806V2.81818H52.5671V13H51.1154V11.8118H50.9911C50.9016 11.9742 50.7724 12.1598 50.6033 12.3686C50.4376 12.5774 50.2089 12.7597 49.9173 12.9155C49.6256 13.0713 49.2478 13.1491 48.7837 13.1491ZM49.1119 11.8814C49.5394 11.8814 49.9007 11.7687 50.1957 11.5433C50.494 11.3146 50.7193 10.9981 50.8718 10.5938C51.0276 10.1894 51.1055 9.71875 51.1055 9.18182C51.1055 8.65151 51.0292 8.1875 50.8768 7.78977C50.7243 7.39205 50.5006 7.08215 50.2056 6.86009C49.9106 6.63802 49.546 6.52699 49.1119 6.52699C48.6644 6.52699 48.2915 6.64299 47.9933 6.875C47.695 7.10701 47.4696 7.42353 47.3171 7.82457C47.168 8.22562 47.0934 8.67803 47.0934 9.18182C47.0934 9.69223 47.1696 10.1513 47.3221 10.5589C47.4746 10.9666 47.6999 11.2898 47.9982 11.5284C48.2998 11.7637 48.671 11.8814 49.1119 11.8814ZM63.2312 9.8331V5.36364H64.7227V13H63.261V11.6776H63.1815C63.0058 12.0852 62.7241 12.425 62.3363 12.6967C61.9518 12.9652 61.4729 13.0994 60.8995 13.0994C60.409 13.0994 59.9748 12.9917 59.5969 12.7763C59.2224 12.5575 58.9274 12.2344 58.712 11.8068C58.4999 11.3793 58.3938 10.8506 58.3938 10.2209V5.36364H59.8803V10.0419C59.8803 10.5623 60.0245 10.9766 60.3129 11.2848C60.6012 11.593 60.9757 11.7472 61.4364 11.7472C61.7148 11.7472 61.9916 11.6776 62.2667 11.5384C62.5451 11.3991 62.7754 11.1887 62.9577 10.907C63.1433 10.6252 63.2345 10.2673 63.2312 9.8331ZM72.4423 7.22798L71.095 7.46662C71.0386 7.29427 70.9492 7.13021 70.8265 6.97443C70.7072 6.81865 70.5448 6.69105 70.3393 6.59162C70.1338 6.49219 69.877 6.44247 69.5687 6.44247C69.1478 6.44247 68.7965 6.53693 68.5147 6.72585C68.233 6.91146 68.0922 7.15175 68.0922 7.44673C68.0922 7.70194 68.1866 7.90743 68.3755 8.06321C68.5645 8.21899 68.8694 8.34659 69.2903 8.44602L70.5034 8.72443C71.206 8.88684 71.7297 9.13707 72.0744 9.47514C72.4191 9.81321 72.5914 10.2524 72.5914 10.7926C72.5914 11.25 72.4589 11.6577 72.1937 12.0156C71.9319 12.3703 71.5656 12.6487 71.095 12.8509C70.6277 13.053 70.0858 13.1541 69.4693 13.1541C68.6142 13.1541 67.9165 12.9718 67.3762 12.6072C66.836 12.2393 66.5046 11.7173 66.3819 11.0412L67.8187 10.8224C67.9082 11.197 68.0922 11.4804 68.3706 11.6726C68.649 11.8615 69.0119 11.956 69.4593 11.956C69.9466 11.956 70.336 11.8549 70.6277 11.6527C70.9193 11.4472 71.0652 11.197 71.0652 10.902C71.0652 10.6634 70.9757 10.4628 70.7967 10.3004C70.621 10.138 70.3509 10.0154 69.9863 9.93253L68.6937 9.64915C67.9811 9.48674 67.4541 9.22822 67.1127 8.87358C66.7747 8.51894 66.6056 8.06984 66.6056 7.52628C66.6056 7.07552 66.7316 6.68111 66.9835 6.34304C67.2354 6.00497 67.5834 5.74148 68.0275 5.55256C68.4717 5.36032 68.9804 5.2642 69.5538 5.2642C70.3791 5.2642 71.0287 5.44318 71.5027 5.80114C71.9766 6.15578 72.2898 6.63139 72.4423 7.22798ZM74.2259 13V5.36364H75.7124V13H74.2259ZM74.9766 4.18537C74.718 4.18537 74.496 4.09919 74.3104 3.92685C74.1281 3.75118 74.0369 3.54238 74.0369 3.30043C74.0369 3.05516 74.1281 2.84635 74.3104 2.67401C74.496 2.49834 74.718 2.41051 74.9766 2.41051C75.2351 2.41051 75.4555 2.49834 75.6378 2.67401C75.8234 2.84635 75.9162 3.05516 75.9162 3.30043C75.9162 3.54238 75.8234 3.75118 75.6378 3.92685C75.4555 4.09919 75.2351 4.18537 74.9766 4.18537ZM79.1987 8.46591V13H77.7122V5.36364H79.139V6.60653H79.2335C79.4092 6.20218 79.6842 5.87737 80.0588 5.6321C80.4366 5.38684 80.9122 5.2642 81.4856 5.2642C82.006 5.2642 82.4617 5.37358 82.8528 5.59233C83.2439 5.80777 83.5472 6.12926 83.7626 6.55682C83.978 6.98437 84.0858 7.51302 84.0858 8.14276V13H82.5993V8.32173C82.5993 7.76823 82.4551 7.3357 82.1667 7.02415C81.8784 6.70928 81.4823 6.55185 80.9785 6.55185C80.6338 6.55185 80.3272 6.62642 80.0588 6.77557C79.7936 6.92472 79.5832 7.14347 79.4274 7.43182C79.2749 7.71686 79.1987 8.06155 79.1987 8.46591ZM89.2811 16.0227C88.6745 16.0227 88.1525 15.9432 87.715 15.7841C87.2808 15.625 86.9262 15.4145 86.6511 15.1527C86.376 14.8909 86.1705 14.6042 86.0346 14.2926L87.3123 13.7656C87.4018 13.9115 87.5211 14.0656 87.6703 14.228C87.8227 14.3937 88.0282 14.5346 88.2868 14.6506C88.5486 14.7666 88.885 14.8246 89.296 14.8246C89.8594 14.8246 90.3251 14.687 90.693 14.4119C91.0609 14.1402 91.2449 13.706 91.2449 13.1094V11.608H91.1504C91.0609 11.7704 90.9316 11.951 90.7626 12.1499C90.5969 12.3487 90.3682 12.5211 90.0765 12.6669C89.7849 12.8127 89.4054 12.8857 88.938 12.8857C88.3348 12.8857 87.7913 12.7448 87.3074 12.4631C86.8268 12.178 86.4456 11.7588 86.1639 11.2053C85.8855 10.6484 85.7463 9.96401 85.7463 9.15199C85.7463 8.33996 85.8838 7.64394 86.1589 7.06392C86.4373 6.4839 86.8185 6.03977 87.3024 5.73153C87.7863 5.41998 88.3348 5.2642 88.948 5.2642C89.4219 5.2642 89.8047 5.34375 90.0964 5.50284C90.3881 5.65862 90.6151 5.84091 90.7775 6.04972C90.9432 6.25852 91.0708 6.44247 91.1603 6.60156H91.2697V5.36364H92.7264V13.169C92.7264 13.8253 92.5739 14.3639 92.269 14.7848C91.9641 15.2057 91.5514 15.5173 91.0311 15.7195C90.514 15.9216 89.9307 16.0227 89.2811 16.0227ZM89.2662 11.6527C89.6937 11.6527 90.055 11.5533 90.35 11.3544C90.6483 11.1522 90.8736 10.8639 91.0261 10.4893C91.1819 10.1115 91.2598 9.65909 91.2598 9.1321C91.2598 8.61837 91.1835 8.16596 91.0311 7.77486C90.8786 7.38376 90.6549 7.07884 90.3599 6.86009C90.0649 6.63802 89.7003 6.52699 89.2662 6.52699C88.8187 6.52699 88.4458 6.64299 88.1475 6.875C87.8493 7.10369 87.6239 7.41525 87.4714 7.80966C87.3223 8.20407 87.2477 8.64489 87.2477 9.1321C87.2477 9.63258 87.3239 10.0717 87.4764 10.4496C87.6288 10.8274 87.8542 11.1224 88.1525 11.3345C88.4541 11.5466 88.8253 11.6527 89.2662 11.6527ZM103.037 14.568C102.804 14.568 102.603 14.498 102.435 14.358C102.267 14.2273 102.193 13.9567 102.211 13.546C102.23 13.0887 102.263 12.6127 102.309 12.118C102.356 11.6233 102.407 11.1613 102.463 10.732C102.585 9.78933 102.613 9.06133 102.547 8.548C102.491 8.02533 102.347 7.652 102.113 7.428C101.889 7.204 101.586 7.05467 101.203 6.98C101.017 6.94267 100.867 6.87267 100.755 6.77C100.643 6.658 100.587 6.51333 100.587 6.336C100.587 6.10267 100.681 5.94867 100.867 5.874C101.045 5.79933 101.273 5.762 101.553 5.762C101.768 5.762 102.043 5.776 102.379 5.804C102.725 5.82267 103.093 5.83667 103.485 5.846C103.812 4.77267 104.181 3.886 104.591 3.186C105.002 2.486 105.45 1.93533 105.935 1.534C106.421 1.12333 106.934 0.838666 107.475 0.679999C108.017 0.511999 108.577 0.427999 109.155 0.427999C109.874 0.427999 110.233 0.684666 110.233 1.198C110.233 1.45 110.112 1.64133 109.869 1.772C109.627 1.90267 109.258 2.01 108.763 2.094C108.175 2.19667 107.657 2.388 107.209 2.668C106.771 2.948 106.383 3.34467 106.047 3.858C105.721 4.37133 105.431 5.034 105.179 5.846C106.477 5.818 107.541 5.748 108.371 5.636C109.202 5.524 109.841 5.41667 110.289 5.314C110.747 5.202 111.064 5.146 111.241 5.146C111.493 5.146 111.647 5.20667 111.703 5.328C111.769 5.44933 111.801 5.58 111.801 5.72C111.801 5.87867 111.652 6.042 111.353 6.21C111.157 6.322 110.845 6.448 110.415 6.588C109.986 6.71867 109.482 6.84933 108.903 6.98C108.325 7.10133 107.713 7.204 107.069 7.288C106.435 7.36267 105.814 7.4 105.207 7.4C105.058 7.4 104.923 7.4 104.801 7.4C104.699 7.94133 104.596 8.51533 104.493 9.122C104.4 9.71933 104.316 10.3027 104.241 10.872C104.167 11.4413 104.101 11.9593 104.045 12.426C103.999 12.8927 103.971 13.266 103.961 13.546C103.952 13.8913 103.863 14.148 103.695 14.316C103.527 14.484 103.308 14.568 103.037 14.568ZM111.176 13.462C110.513 13.462 109.981 13.2287 109.58 12.762C109.179 12.286 108.978 11.6513 108.978 10.858C108.978 10.606 109.011 10.3493 109.076 10.088C109.151 9.82667 109.239 9.584 109.342 9.36C109.286 9.276 109.239 9.16867 109.202 9.038C109.174 8.898 109.16 8.73467 109.16 8.548C109.16 7.94133 109.267 7.386 109.482 6.882C109.697 6.36867 109.986 5.92533 110.35 5.552C110.714 5.17867 111.115 4.88933 111.554 4.684C111.993 4.47867 112.436 4.376 112.884 4.376C113.649 4.376 114.275 4.63267 114.76 5.146C115.255 5.65933 115.502 6.45733 115.502 7.54C115.502 8.08133 115.418 8.632 115.25 9.192C115.082 9.752 114.853 10.2887 114.564 10.802C114.284 11.306 113.957 11.7587 113.584 12.16C113.22 12.5613 112.828 12.8787 112.408 13.112C111.997 13.3453 111.587 13.462 111.176 13.462ZM110.952 8.73C110.999 8.83267 111.022 8.954 111.022 9.094C111.022 9.234 110.994 9.37867 110.938 9.528C110.882 9.67733 110.826 9.878 110.77 10.13C110.714 10.3727 110.686 10.7227 110.686 11.18C110.686 11.3013 110.7 11.404 110.728 11.488C110.765 11.5627 110.845 11.6 110.966 11.6C111.283 11.6 111.582 11.4973 111.862 11.292C112.151 11.0867 112.408 10.816 112.632 10.48C112.865 10.144 113.061 9.77067 113.22 9.36C113.388 8.94 113.514 8.51533 113.598 8.086C113.691 7.64733 113.738 7.24133 113.738 6.868C113.738 6.62533 113.691 6.45733 113.598 6.364C113.505 6.27067 113.341 6.224 113.108 6.224C112.791 6.224 112.464 6.32667 112.128 6.532C111.801 6.728 111.526 6.99867 111.302 7.344C111.078 7.68 110.966 8.06267 110.966 8.492C110.966 8.576 110.961 8.65533 110.952 8.73ZM117.953 13.616C117.719 13.616 117.519 13.532 117.351 13.364C117.192 13.196 117.113 12.9533 117.113 12.636C117.113 12.496 117.131 12.2673 117.169 11.95C117.215 11.6233 117.271 11.25 117.337 10.83C117.411 10.41 117.481 9.97133 117.547 9.514C117.621 9.05667 117.682 8.62267 117.729 8.212C117.785 7.80133 117.822 7.45133 117.841 7.162C117.859 6.80733 117.953 6.55533 118.121 6.406C118.289 6.24733 118.489 6.168 118.723 6.168C118.909 6.168 119.077 6.21467 119.227 6.308C119.385 6.392 119.483 6.574 119.521 6.854C119.567 7.12467 119.572 7.51667 119.535 8.03C119.945 7.28333 120.361 6.616 120.781 6.028C121.21 5.44 121.658 4.97333 122.125 4.628C122.899 4.04 123.599 3.746 124.225 3.746C124.579 3.746 124.813 3.82533 124.925 3.984C125.037 4.14267 125.093 4.306 125.093 4.474C125.093 4.586 125.065 4.68867 125.009 4.782C124.962 4.87533 124.859 4.97333 124.701 5.076C124.542 5.17867 124.299 5.314 123.973 5.482C123.534 5.706 123.1 6 122.671 6.364C122.251 6.728 121.831 7.19467 121.411 7.764C120.991 8.33333 120.566 9.03333 120.137 9.864C119.707 10.6947 119.264 11.684 118.807 12.832C118.723 13.1493 118.601 13.3593 118.443 13.462C118.293 13.5647 118.13 13.616 117.953 13.616ZM136.677 12.678C136.621 13.182 136.322 13.434 135.781 13.434C135.501 13.434 135.277 13.35 135.109 13.182C134.95 13.014 134.871 12.7713 134.871 12.454C134.871 11.9127 134.894 11.334 134.941 10.718C134.997 10.0927 135.062 9.46267 135.137 8.828C135.221 8.19333 135.3 7.58667 135.375 7.008C135.039 7.49333 134.684 7.99267 134.311 8.506C133.938 9.01933 133.564 9.51867 133.191 10.004C132.818 10.4893 132.458 10.928 132.113 11.32C131.777 11.7027 131.469 12.0107 131.189 12.244C130.909 12.468 130.676 12.58 130.489 12.58C130.041 12.58 129.654 12.4167 129.327 12.09C129 11.754 128.837 11.3293 128.837 10.816C128.837 10.6387 128.856 10.4007 128.893 10.102C128.93 9.794 128.977 9.46733 129.033 9.122C129.089 8.77667 129.136 8.45 129.173 8.142C129.21 7.834 129.229 7.59133 129.229 7.414C129.229 7.414 129.229 7.40467 129.229 7.386C129.238 7.33933 129.229 7.316 129.201 7.316C129.164 7.316 129.061 7.442 128.893 7.694C128.725 7.93667 128.52 8.254 128.277 8.646C128.034 9.038 127.778 9.44867 127.507 9.878C127.246 10.3073 126.998 10.7087 126.765 11.082C126.541 11.4553 126.354 11.7447 126.205 11.95C126 12.2673 125.808 12.468 125.631 12.552C125.454 12.636 125.248 12.678 125.015 12.678C124.688 12.678 124.432 12.5707 124.245 12.356C124.068 12.132 123.979 11.8193 123.979 11.418C123.979 11.25 124.007 10.9887 124.063 10.634C124.128 10.2793 124.208 9.88733 124.301 9.458C124.394 9.01933 124.488 8.59467 124.581 8.184C124.684 7.764 124.772 7.40933 124.847 7.12C124.931 6.73733 125.048 6.47133 125.197 6.322C125.356 6.16333 125.556 6.084 125.799 6.084C126.368 6.084 126.653 6.364 126.653 6.924C126.653 7.02667 126.62 7.19467 126.555 7.428C126.49 7.66133 126.41 7.932 126.317 8.24C126.224 8.548 126.126 8.86533 126.023 9.192C125.92 9.50933 125.836 9.808 125.771 10.088C125.995 9.696 126.238 9.276 126.499 8.828C126.76 8.38 127.026 7.94133 127.297 7.512C127.577 7.08267 127.852 6.69067 128.123 6.336C128.403 5.98133 128.678 5.70133 128.949 5.496C129.22 5.28133 129.476 5.174 129.719 5.174C129.962 5.174 130.2 5.26267 130.433 5.44C130.666 5.608 130.858 5.82733 131.007 6.098C131.166 6.35933 131.245 6.63933 131.245 6.938C131.245 7.218 131.208 7.554 131.133 7.946C131.058 8.338 130.974 8.74867 130.881 9.178C130.788 9.60733 130.722 10.0273 130.685 10.438C131.002 10.0833 131.338 9.682 131.693 9.234C132.048 8.77667 132.412 8.30533 132.785 7.82C133.158 7.33467 133.522 6.86333 133.877 6.406C134.241 5.94867 134.577 5.53333 134.885 5.16C135.202 4.78667 135.482 4.49267 135.725 4.278C135.968 4.054 136.154 3.942 136.285 3.942C136.668 3.942 136.966 4.04467 137.181 4.25C137.405 4.446 137.517 4.79133 137.517 5.286C137.517 5.594 137.494 5.99533 137.447 6.49C137.41 6.98467 137.354 7.52133 137.279 8.1C137.214 8.66933 137.139 9.248 137.055 9.836C136.98 10.4147 136.91 10.9513 136.845 11.446C136.78 11.9407 136.724 12.3513 136.677 12.678ZM141.443 13.714C141.042 13.714 140.757 13.658 140.589 13.546C140.431 13.434 140.351 13.2707 140.351 13.056C140.351 12.8693 140.417 12.7107 140.547 12.58C140.678 12.44 140.967 12.3 141.415 12.16C141.938 12.0013 142.433 11.8193 142.899 11.614C143.375 11.3993 143.763 11.166 144.061 10.914C144.369 10.662 144.523 10.396 144.523 10.116C144.523 9.92933 144.458 9.794 144.327 9.71C144.206 9.626 144.061 9.584 143.893 9.584C143.753 9.584 143.548 9.60733 143.277 9.654C143.016 9.69133 142.727 9.74267 142.409 9.808C142.092 9.864 141.784 9.91533 141.485 9.962C141.196 9.99933 140.949 10.018 140.743 10.018C140.258 10.018 139.899 9.91067 139.665 9.696C139.432 9.472 139.315 9.18733 139.315 8.842C139.315 8.65533 139.413 8.39867 139.609 8.072C139.805 7.74533 140.067 7.386 140.393 6.994C140.72 6.602 141.084 6.21 141.485 5.818C141.887 5.426 142.293 5.06667 142.703 4.74C143.123 4.404 143.52 4.138 143.893 3.942C144.267 3.73667 144.584 3.634 144.845 3.634C145.144 3.634 145.382 3.72733 145.559 3.914C145.746 4.10067 145.839 4.35267 145.839 4.67C145.839 4.81933 145.825 4.98267 145.797 5.16C145.769 5.328 145.699 5.482 145.587 5.622C145.475 5.75267 145.303 5.846 145.069 5.902C144.836 5.958 144.519 5.94867 144.117 5.874C143.8 6.10733 143.469 6.364 143.123 6.644C142.787 6.91467 142.47 7.19933 142.171 7.498C141.873 7.78733 141.625 8.072 141.429 8.352C141.775 8.24 142.167 8.15133 142.605 8.086C143.044 8.01133 143.487 7.974 143.935 7.974C144.477 7.974 144.915 8.072 145.251 8.268C145.597 8.45467 145.849 8.70667 146.007 9.024C146.175 9.34133 146.259 9.69133 146.259 10.074C146.259 10.5033 146.119 10.9327 145.839 11.362C145.559 11.7913 145.186 12.1833 144.719 12.538C144.253 12.8927 143.735 13.1773 143.165 13.392C142.596 13.6067 142.022 13.714 141.443 13.714ZM157.877 5.944C157.877 6.056 157.84 6.154 157.765 6.238C157.69 6.322 157.597 6.38733 157.485 6.434C157.326 6.49933 157.051 6.58333 156.659 6.686C156.267 6.78867 155.791 6.90533 155.231 7.036C154.68 7.16667 154.088 7.302 153.453 7.442C152.818 7.57267 152.184 7.69867 151.549 7.82C151.306 8.716 151.059 9.64 150.807 10.592C150.555 11.5347 150.303 12.4633 150.051 13.378C149.958 13.7047 149.846 13.952 149.715 14.12C149.584 14.2973 149.36 14.386 149.043 14.386C148.698 14.386 148.464 14.274 148.343 14.05C148.231 13.8353 148.217 13.5413 148.301 13.168C148.544 12.1507 148.768 11.2033 148.973 10.326C149.188 9.44867 149.36 8.73933 149.491 8.198C148.931 8.29133 148.441 8.366 148.021 8.422C147.601 8.46867 147.302 8.48733 147.125 8.478C146.929 8.45933 146.766 8.38 146.635 8.24C146.504 8.1 146.444 7.92733 146.453 7.722C146.472 7.53533 146.556 7.37667 146.705 7.246C146.854 7.106 147.032 7.022 147.237 6.994C147.526 6.966 147.9 6.924 148.357 6.868C148.814 6.812 149.318 6.74667 149.869 6.672C149.99 6.196 150.13 5.706 150.289 5.202C150.448 4.68867 150.611 4.19867 150.779 3.732C150.956 3.256 151.124 2.84067 151.283 2.486C151.442 2.13133 151.586 1.87467 151.717 1.716C151.82 1.59467 151.946 1.50133 152.095 1.436C152.254 1.37067 152.408 1.338 152.557 1.338C152.753 1.338 152.912 1.408 153.033 1.548C153.154 1.688 153.215 1.85133 153.215 2.038C153.215 2.11267 153.21 2.192 153.201 2.276C153.192 2.35067 153.173 2.42533 153.145 2.5C152.968 2.96667 152.776 3.53133 152.571 4.194C152.375 4.85667 152.17 5.58467 151.955 6.378C152.655 6.27533 153.341 6.17267 154.013 6.07C154.694 5.958 155.31 5.85533 155.861 5.762C156.421 5.65933 156.869 5.57067 157.205 5.496C157.392 5.43067 157.55 5.44467 157.681 5.538C157.812 5.622 157.877 5.75733 157.877 5.944ZM156.739 13.616C156.505 13.616 156.305 13.532 156.137 13.364C155.978 13.196 155.899 12.9533 155.899 12.636C155.899 12.496 155.917 12.2673 155.955 11.95C156.001 11.6233 156.057 11.25 156.123 10.83C156.197 10.41 156.267 9.97133 156.333 9.514C156.407 9.05667 156.468 8.62267 156.515 8.212C156.571 7.80133 156.608 7.45133 156.627 7.162C156.645 6.80733 156.739 6.55533 156.907 6.406C157.075 6.24733 157.275 6.168 157.509 6.168C157.695 6.168 157.863 6.21467 158.013 6.308C158.171 6.392 158.269 6.574 158.307 6.854C158.353 7.12467 158.358 7.51667 158.321 8.03C158.731 7.28333 159.147 6.616 159.567 6.028C159.996 5.44 160.444 4.97333 160.911 4.628C161.685 4.04 162.385 3.746 163.011 3.746C163.365 3.746 163.599 3.82533 163.711 3.984C163.823 4.14267 163.879 4.306 163.879 4.474C163.879 4.586 163.851 4.68867 163.795 4.782C163.748 4.87533 163.645 4.97333 163.487 5.076C163.328 5.17867 163.085 5.314 162.759 5.482C162.32 5.706 161.886 6 161.457 6.364C161.037 6.728 160.617 7.19467 160.197 7.764C159.777 8.33333 159.352 9.03333 158.923 9.864C158.493 10.6947 158.05 11.684 157.593 12.832C157.509 13.1493 157.387 13.3593 157.229 13.462C157.079 13.5647 156.916 13.616 156.739 13.616Z" fill="#A8A29E"/>
</svg>
