<svg width="16" height="16" viewBox="0 0 16 16" fill="none" xmlns="http://www.w3.org/2000/svg">
<g id="Frame">
<path id="Vector" d="M3.33333 2.66675H4C4.53043 2.66675 5.03914 2.87746 5.41421 3.25253C5.78929 3.62761 6 4.13632 6 4.66675C6 4.13632 6.21071 3.62761 6.58579 3.25253C6.96086 2.87746 7.46957 2.66675 8 2.66675H8.66667" stroke="#431407" stroke-width="2" stroke-linecap="round" stroke-linejoin="round"/>
<path id="Vector_2" d="M8.66667 13.3333H8C7.46957 13.3333 6.96086 13.1225 6.58579 12.7475C6.21071 12.3724 6 11.8637 6 11.3333C6 11.8637 5.78929 12.3724 5.41421 12.7475C5.03914 13.1225 4.53043 13.3333 4 13.3333H3.33333" stroke="#431407" stroke-width="2" stroke-linecap="round" stroke-linejoin="round"/>
<path id="Vector_3" d="M3.33333 10.6666H2.66667C2.31304 10.6666 1.9739 10.5261 1.72386 10.2761C1.47381 10.026 1.33333 9.68687 1.33333 9.33325V6.66659C1.33333 6.31296 1.47381 5.97383 1.72386 5.72378C1.9739 5.47373 2.31304 5.33325 2.66667 5.33325H3.33333" stroke="#431407" stroke-width="2" stroke-linecap="round" stroke-linejoin="round"/>
<path id="Vector_4" d="M8.66667 5.33325H13.3333C13.687 5.33325 14.0261 5.47373 14.2761 5.72378C14.5262 5.97383 14.6667 6.31296 14.6667 6.66659V9.33325C14.6667 9.68687 14.5262 10.026 14.2761 10.2761C14.0261 10.5261 13.687 10.6666 13.3333 10.6666H8.66667" stroke="#431407" stroke-width="2" stroke-linecap="round" stroke-linejoin="round"/>
<path id="Vector_5" d="M6 4.66675V11.3334" stroke="#431407" stroke-width="2" stroke-linecap="round" stroke-linejoin="round"/>
</g>
</svg>
