<svg width="16" height="16" viewBox="0 0 16 16" fill="none" xmlns="http://www.w3.org/2000/svg">
<path d="M7.99992 4.00002C8.36811 4.00002 8.66659 3.70154 8.66659 3.33335C8.66659 2.96516 8.36811 2.66669 7.99992 2.66669C7.63173 2.66669 7.33325 2.96516 7.33325 3.33335C7.33325 3.70154 7.63173 4.00002 7.99992 4.00002Z" stroke="black" stroke-width="1.33333" stroke-linecap="round" stroke-linejoin="round"/>
<path d="M12.6667 4.00002C13.0349 4.00002 13.3333 3.70154 13.3333 3.33335C13.3333 2.96516 13.0349 2.66669 12.6667 2.66669C12.2985 2.66669 12 2.96516 12 3.33335C12 3.70154 12.2985 4.00002 12.6667 4.00002Z" stroke="black" stroke-width="1.33333" stroke-linecap="round" stroke-linejoin="round"/>
<path d="M3.33341 4.00002C3.7016 4.00002 4.00008 3.70154 4.00008 3.33335C4.00008 2.96516 3.7016 2.66669 3.33341 2.66669C2.96522 2.66669 2.66675 2.96516 2.66675 3.33335C2.66675 3.70154 2.96522 4.00002 3.33341 4.00002Z" stroke="black" stroke-width="1.33333" stroke-linecap="round" stroke-linejoin="round"/>
<path d="M7.99992 8.66665C8.36811 8.66665 8.66659 8.36817 8.66659 7.99998C8.66659 7.63179 8.36811 7.33331 7.99992 7.33331C7.63173 7.33331 7.33325 7.63179 7.33325 7.99998C7.33325 8.36817 7.63173 8.66665 7.99992 8.66665Z" stroke="black" stroke-width="1.33333" stroke-linecap="round" stroke-linejoin="round"/>
<path d="M12.6667 8.66665C13.0349 8.66665 13.3333 8.36817 13.3333 7.99998C13.3333 7.63179 13.0349 7.33331 12.6667 7.33331C12.2985 7.33331 12 7.63179 12 7.99998C12 8.36817 12.2985 8.66665 12.6667 8.66665Z" stroke="black" stroke-width="1.33333" stroke-linecap="round" stroke-linejoin="round"/>
<path d="M3.33341 8.66665C3.7016 8.66665 4.00008 8.36817 4.00008 7.99998C4.00008 7.63179 3.7016 7.33331 3.33341 7.33331C2.96522 7.33331 2.66675 7.63179 2.66675 7.99998C2.66675 8.36817 2.96522 8.66665 3.33341 8.66665Z" stroke="black" stroke-width="1.33333" stroke-linecap="round" stroke-linejoin="round"/>
<path d="M7.99992 13.3333C8.36811 13.3333 8.66659 13.0349 8.66659 12.6667C8.66659 12.2985 8.36811 12 7.99992 12C7.63173 12 7.33325 12.2985 7.33325 12.6667C7.33325 13.0349 7.63173 13.3333 7.99992 13.3333Z" stroke="black" stroke-width="1.33333" stroke-linecap="round" stroke-linejoin="round"/>
<path d="M12.6667 13.3333C13.0349 13.3333 13.3333 13.0349 13.3333 12.6667C13.3333 12.2985 13.0349 12 12.6667 12C12.2985 12 12 12.2985 12 12.6667C12 13.0349 12.2985 13.3333 12.6667 13.3333Z" stroke="black" stroke-width="1.33333" stroke-linecap="round" stroke-linejoin="round"/>
<path d="M3.33341 13.3333C3.7016 13.3333 4.00008 13.0349 4.00008 12.6667C4.00008 12.2985 3.7016 12 3.33341 12C2.96522 12 2.66675 12.2985 2.66675 12.6667C2.66675 13.0349 2.96522 13.3333 3.33341 13.3333Z" stroke="black" stroke-width="1.33333" stroke-linecap="round" stroke-linejoin="round"/>
</svg>
