<svg width="79" height="32" viewBox="0 0 79 32" fill="none" xmlns="http://www.w3.org/2000/svg">
<rect width="78.5676" height="32" rx="7.26253" fill="black"/>
<path d="M13.263 23.3302C12.9906 23.3302 12.7564 23.2485 12.5603 23.085C12.3642 22.9325 12.2771 22.6166 12.2989 22.1373C12.3206 21.6035 12.3588 21.0479 12.4132 20.4705C12.4677 19.8932 12.5276 19.3539 12.593 18.8528C12.7346 17.7525 12.7673 16.9028 12.691 16.3037C12.6257 15.6936 12.4568 15.2579 12.1845 14.9964C11.923 14.735 11.569 14.5607 11.1223 14.4735C10.9044 14.4299 10.7301 14.3482 10.5994 14.2284C10.4687 14.0977 10.4033 13.9288 10.4033 13.7218C10.4033 13.4495 10.5123 13.2697 10.7301 13.1826C10.9371 13.0954 11.204 13.0519 11.5308 13.0519C11.7814 13.0519 12.1028 13.0682 12.4949 13.1009C12.898 13.1227 13.3283 13.139 13.7859 13.1499C14.1671 11.8971 14.5974 10.8622 15.0768 10.0452C15.5561 9.22814 16.079 8.58541 16.6455 8.11698C17.212 7.63765 17.8111 7.30539 18.443 7.12019C19.0748 6.92411 19.7284 6.82606 20.4038 6.82606C21.2427 6.82606 21.6621 7.12564 21.6621 7.7248C21.6621 8.01893 21.5204 8.24226 21.2372 8.39477C20.954 8.54728 20.5237 8.67256 19.9463 8.7706C19.26 8.89044 18.6554 9.11376 18.1325 9.44057C17.6205 9.76739 17.1684 10.2304 16.7762 10.8295C16.3949 11.4287 16.0572 12.2021 15.7631 13.1499C17.2773 13.1172 18.5192 13.0355 19.4888 12.9048C20.4583 12.7741 21.2045 12.6488 21.7274 12.529C22.2612 12.3982 22.6316 12.3329 22.8386 12.3329C23.1327 12.3329 23.3125 12.4037 23.3778 12.5453C23.4541 12.6869 23.4922 12.8394 23.4922 13.0028C23.4922 13.188 23.3179 13.3787 22.9693 13.5748C22.7406 13.7055 22.3756 13.8526 21.8745 14.016C21.3734 14.1685 20.7851 14.321 20.1097 14.4735C19.4343 14.6151 18.7207 14.735 17.9691 14.833C17.2283 14.9201 16.5039 14.9637 15.7958 14.9637C15.6215 14.9637 15.4635 14.9637 15.3219 14.9637C15.202 15.5956 15.0822 16.2655 14.9624 16.9736C14.8534 17.6708 14.7554 18.3517 14.6683 19.0162C14.5811 19.6807 14.5048 20.2853 14.4395 20.83C14.385 21.3747 14.3523 21.8105 14.3414 22.1373C14.3305 22.5404 14.2271 22.8399 14.031 23.036C13.8349 23.2321 13.5789 23.3302 13.263 23.3302ZM23.0891 22.0392C22.3156 22.0392 21.6947 21.7669 21.2262 21.2222C20.7578 20.6666 20.5236 19.9258 20.5236 18.9999C20.5236 18.7057 20.5617 18.4062 20.638 18.1011C20.7251 17.7961 20.8286 17.5129 20.9484 17.2514C20.8831 17.1534 20.8286 17.0281 20.785 16.8756C20.7524 16.7122 20.736 16.5215 20.736 16.3037C20.736 15.5956 20.8613 14.9474 21.1118 14.3591C21.3624 13.76 21.7001 13.2425 22.125 12.8068C22.5498 12.371 23.0183 12.0333 23.5303 11.7936C24.0423 11.554 24.5597 11.4341 25.0826 11.4341C25.9759 11.4341 26.7058 11.7337 27.2723 12.3329C27.8497 12.932 28.1383 13.8635 28.1383 15.1271C28.1383 15.759 28.0403 16.4017 27.8442 17.0553C27.6481 17.709 27.3812 18.3354 27.0435 18.9345C26.7167 19.5228 26.3354 20.0511 25.8997 20.5196C25.4748 20.988 25.0173 21.3584 24.527 21.6307C24.0477 21.9031 23.5684 22.0392 23.0891 22.0392ZM22.8276 16.5161C22.8821 16.6359 22.9093 16.7775 22.9093 16.9409C22.9093 17.1044 22.8766 17.2732 22.8113 17.4475C22.7459 17.6218 22.6806 17.856 22.6152 18.1502C22.5498 18.4334 22.5171 18.8419 22.5171 19.3757C22.5171 19.5173 22.5335 19.6372 22.5662 19.7352C22.6097 19.8224 22.7023 19.8659 22.844 19.8659C23.2143 19.8659 23.5629 19.7461 23.8898 19.5064C24.2275 19.2668 24.527 18.9509 24.7885 18.5587C25.0608 18.1665 25.2896 17.7307 25.4748 17.2514C25.6709 16.7612 25.818 16.2655 25.916 15.7644C26.0249 15.2524 26.0794 14.7785 26.0794 14.3428C26.0794 14.0595 26.0249 13.8635 25.916 13.7545C25.8071 13.6456 25.6164 13.5911 25.3441 13.5911C24.9737 13.5911 24.5924 13.7109 24.2002 13.9506C23.819 14.1794 23.4976 14.4953 23.2361 14.8984C22.9747 15.2905 22.844 15.7372 22.844 16.2383C22.844 16.3363 22.8385 16.4289 22.8276 16.5161ZM31.3257 22.219C31.0533 22.219 30.8191 22.1209 30.623 21.9249C30.4378 21.7288 30.3452 21.4455 30.3452 21.0751C30.3452 20.9117 30.367 20.6448 30.4106 20.2744C30.4651 19.8932 30.5304 19.4574 30.6067 18.9672C30.6938 18.477 30.7755 17.965 30.8518 17.4312C30.9389 16.8974 31.0097 16.3908 31.0642 15.9115C31.1296 15.4322 31.1732 15.0236 31.1949 14.6859C31.2167 14.272 31.3257 13.9778 31.5218 13.8035C31.7178 13.6183 31.9521 13.5257 32.2244 13.5257C32.4423 13.5257 32.6384 13.5802 32.8127 13.6892C32.9979 13.7872 33.1123 13.9996 33.1558 14.3264C33.2103 14.6424 33.2157 15.0999 33.1722 15.6991C33.6515 14.8276 34.1363 14.0486 34.6265 13.3623C35.1276 12.676 35.6505 12.1313 36.1952 11.7283C37.0994 11.042 37.9164 10.6988 38.6463 10.6988C39.0603 10.6988 39.3326 10.7914 39.4633 10.9766C39.5941 11.1618 39.6594 11.3524 39.6594 11.5485C39.6594 11.6792 39.6267 11.7991 39.5614 11.908C39.5069 12.017 39.3871 12.1313 39.2019 12.2512C39.0167 12.371 38.7334 12.529 38.3522 12.7251C37.8402 12.9865 37.3336 13.3297 36.8325 13.7545C36.3423 14.1794 35.852 14.7241 35.3618 15.3886C34.8716 16.0531 34.3759 16.8701 33.8748 17.8397C33.3737 18.8092 32.8562 19.964 32.3225 21.3039C32.2244 21.6743 32.0828 21.9194 31.8976 22.0392C31.7233 22.1591 31.5327 22.219 31.3257 22.219ZM53.5074 21.1242C53.442 21.7124 53.0934 22.0066 52.4616 22.0066C52.1348 22.0066 51.8733 21.9085 51.6772 21.7124C51.492 21.5163 51.3994 21.2331 51.3994 20.8627C51.3994 20.2309 51.4267 19.5555 51.4811 18.8365C51.5465 18.1066 51.6228 17.3713 51.7099 16.6305C51.808 15.8897 51.9006 15.1816 51.9877 14.5062C51.5955 15.0727 51.1816 15.6555 50.7458 16.2546C50.3101 16.8538 49.8743 17.4366 49.4386 18.0031C49.0028 18.5696 48.5834 19.0816 48.1803 19.5391C47.7881 19.9858 47.4286 20.3453 47.1018 20.6176C46.775 20.8791 46.5027 21.0098 46.2848 21.0098C45.7619 21.0098 45.3098 20.8191 44.9285 20.4379C44.5472 20.0457 44.3566 19.55 44.3566 18.9509C44.3566 18.7439 44.3784 18.4661 44.422 18.1175C44.4655 17.758 44.52 17.3767 44.5854 16.9736C44.6507 16.5706 44.7052 16.1893 44.7488 15.8298C44.7924 15.4703 44.8141 15.187 44.8141 14.9801C44.8141 14.9801 44.8141 14.9692 44.8141 14.9474C44.825 14.8929 44.8141 14.8657 44.7815 14.8657C44.7379 14.8657 44.6181 15.0127 44.422 15.3069C44.2259 15.5901 43.9862 15.9605 43.703 16.418C43.4197 16.8756 43.1202 17.3549 42.8042 17.856C42.4992 18.3571 42.2105 18.8256 41.9382 19.2613C41.6767 19.6971 41.4589 20.0348 41.2846 20.2744C41.0449 20.6448 40.8216 20.8791 40.6146 20.9771C40.4076 21.0751 40.1679 21.1242 39.8956 21.1242C39.5143 21.1242 39.2147 20.9989 38.9969 20.7483C38.7899 20.4869 38.6864 20.1219 38.6864 19.6535C38.6864 19.4574 38.7191 19.1524 38.7844 18.7384C38.8607 18.3245 38.9533 17.8669 39.0622 17.3658C39.1712 16.8538 39.2801 16.3581 39.389 15.8788C39.5089 15.3886 39.6124 14.9746 39.6995 14.6369C39.7975 14.1903 39.9337 13.8798 40.108 13.7055C40.2932 13.5203 40.5274 13.4277 40.8107 13.4277C41.4752 13.4277 41.8075 13.7545 41.8075 14.4081C41.8075 14.528 41.7693 14.7241 41.6931 14.9964C41.6168 15.2688 41.5242 15.5847 41.4153 15.9442C41.3063 16.3037 41.192 16.6741 41.0721 17.0553C40.9523 17.4257 40.8542 17.7743 40.778 18.1011C41.0394 17.6436 41.3227 17.1534 41.6277 16.6305C41.9327 16.1076 42.2432 15.5956 42.5591 15.0945C42.8859 14.5933 43.2073 14.1358 43.5232 13.7218C43.85 13.3079 44.1714 12.9811 44.4873 12.7414C44.8032 12.4908 45.1028 12.3656 45.3861 12.3656C45.6693 12.3656 45.9471 12.469 46.2194 12.676C46.4918 12.8721 46.7151 13.1281 46.8894 13.444C47.0746 13.7491 47.1672 14.0759 47.1672 14.4245C47.1672 14.7513 47.1236 15.1435 47.0365 15.601C46.9493 16.0586 46.8513 16.5379 46.7423 17.039C46.6334 17.5401 46.5571 18.0303 46.5136 18.5097C46.884 18.0957 47.2761 17.6273 47.6901 17.1044C48.1041 16.5706 48.5289 16.0204 48.9647 15.4539C49.4004 14.8875 49.8253 14.3373 50.2392 13.8035C50.6641 13.2697 51.0563 12.785 51.4158 12.3492C51.7862 11.9135 52.113 11.5703 52.3962 11.3198C52.6795 11.0583 52.8973 10.9276 53.0498 10.9276C53.4965 10.9276 53.8451 11.0474 54.0957 11.2871C54.3571 11.5158 54.4878 11.9189 54.4878 12.4963C54.4878 12.8558 54.4606 13.3242 54.4061 13.9016C54.3625 14.479 54.2972 15.1053 54.21 15.7808C54.1338 16.4453 54.0466 17.1207 53.9486 17.807C53.8614 18.4824 53.7797 19.1088 53.7035 19.6862C53.6272 20.2636 53.5619 20.7429 53.5074 21.1242Z" fill="white"/>
<path d="M63.8936 19.89C63.7202 19.7166 63.4736 19.4366 63.1536 19.05C62.8469 18.6633 62.4936 18.2166 62.0936 17.71C61.7736 18.2966 61.4736 18.83 61.1936 19.31C60.9269 19.79 60.7269 20.1566 60.5936 20.41C60.4336 20.7033 60.2402 20.9766 60.0136 21.23C59.8002 21.47 59.5336 21.59 59.2136 21.59C59.0136 21.59 58.8402 21.5166 58.6936 21.37C58.5602 21.2233 58.4936 21.05 58.4936 20.85C58.4936 20.5433 58.6469 20.03 58.9536 19.31C59.2602 18.5766 59.6336 17.7766 60.0736 16.91C59.0202 16.8966 58.1869 16.8233 57.5736 16.69C56.9736 16.5566 56.5402 16.3966 56.2736 16.21C56.0202 16.0233 55.8936 15.83 55.8936 15.63C55.8936 15.3633 56.1069 15.1233 56.5336 14.91C56.9602 14.6833 57.6536 14.57 58.6136 14.57C59.0402 14.57 59.4469 14.57 59.8336 14.57C59.3936 13.9433 59.0269 13.3833 58.7336 12.89C58.4536 12.3966 58.3136 12.07 58.3136 11.91C58.3136 11.5633 58.3869 11.2966 58.5336 11.11C58.6802 10.91 58.8736 10.81 59.1136 10.81C59.3402 10.81 59.5736 10.8566 59.8136 10.95C60.0536 11.0433 60.2869 11.2633 60.5136 11.61C60.6602 11.8233 60.8536 12.0966 61.0936 12.43C61.3336 12.7633 61.6002 13.13 61.8936 13.53C62.4802 12.49 62.9136 11.77 63.1936 11.37C63.3536 11.13 63.5336 10.91 63.7336 10.71C63.9469 10.51 64.2002 10.41 64.4936 10.41C64.7069 10.41 64.8669 10.51 64.9736 10.71C65.0936 10.8966 65.1536 11.11 65.1536 11.35C65.1536 11.59 65.0136 12.0166 64.7336 12.63C64.4669 13.2433 64.1336 13.93 63.7336 14.69C64.6802 14.7433 65.4202 14.8166 65.9536 14.91C66.4869 14.99 66.8736 15.0833 67.1136 15.19C67.3536 15.2833 67.5069 15.3833 67.5736 15.49C67.6402 15.5833 67.6736 15.6766 67.6736 15.77C67.6736 15.85 67.6402 15.9433 67.5736 16.05C67.5069 16.1433 67.3602 16.2433 67.1336 16.35C66.9202 16.4433 66.5802 16.53 66.1136 16.61C65.6469 16.69 65.0069 16.7566 64.1936 16.81C64.6202 17.45 64.9802 18.0166 65.2736 18.51C65.5669 19.0033 65.7136 19.3366 65.7136 19.51C65.7136 19.7633 65.6336 19.9833 65.4736 20.17C65.3136 20.3566 65.1136 20.45 64.8736 20.45C64.6736 20.45 64.4936 20.39 64.3336 20.27C64.1869 20.15 64.0402 20.0233 63.8936 19.89Z" fill="white"/>
</svg>
