<svg width="52" height="52" fill="none" xmlns="http://www.w3.org/2000/svg"><path d="M23.127 7.528c1.007-2.638 4.74-2.638 5.746 0a3.075 3.075 0 0 0 4.697 1.38c2.273-1.676 5.413.342 4.833 3.106a3.075 3.075 0 0 0 3.206 3.7c2.818-.18 4.368 3.214 2.387 5.226a3.075 3.075 0 0 0 .696 4.845c2.468 1.372 1.937 5.066-.817 5.687a3.075 3.075 0 0 0-2.034 4.453c1.335 2.489-1.11 5.31-3.762 4.342a3.075 3.075 0 0 0-4.118 2.647c-.223 2.815-3.804 3.866-5.513 1.619a3.075 3.075 0 0 0-4.896 0c-1.709 2.247-5.29 1.196-5.512-1.619a3.075 3.075 0 0 0-4.119-2.647c-2.653.967-5.097-1.853-3.762-4.342a3.075 3.075 0 0 0-2.034-4.453c-2.754-.62-3.285-4.315-.817-5.687a3.075 3.075 0 0 0 .696-4.845c-1.981-2.012-.43-5.407 2.387-5.227a3.075 3.075 0 0 0 3.206-3.7c-.58-2.763 2.56-4.78 4.833-3.105a3.075 3.075 0 0 0 4.697-1.38z" fill="url(#a)"/><path d="M32.933 22.233 23.4 31.767l-4.334-4.334" stroke="#F7F7F7" stroke-width="4" stroke-linecap="round" stroke-linejoin="round"/><defs><linearGradient id="a" x1="26" y1="2" x2="26" y2="48" gradientUnits="userSpaceOnUse"><stop stop-color="#FF6B00"/><stop offset="1" stop-color="#FF2E00"/></linearGradient></defs></svg>